<svg xmlns="http://www.w3.org/2000/svg" version="1.1" xlink="http://www.w3.org/1999/xlink" xmlns:svgjs="http://svgjs.com/svgjs" width="100%" height="100%" preserveAspectRatio="xMidYMid meet" viewBox="0 0 300 49.560455322265625" overflow="visible">
  <defs id="SvgjsDefs282458"></defs>
  <g id="SvgjsG282459" transform="scale(0.6493506493506493)" opacity="1">
    <g id="SvgjsG282460" class="text" transform="translate(89.01, 64.52096201691825) scale(1)" light-content="false" fill="#000000">
      <path d="M-79.04 0L-68.47 0L-68.47 -43.14L-58.51 -43.14L-58.51 -52.72L-89.01 -52.72L-89.01 -43.14L-79.04 -43.14Z M-46.09 0L-20.5 0L-20.5 -9.27L-35.52 -9.27L-35.52 -21.99L-22.57 -21.99L-22.57 -31.26L-35.52 -31.26L-35.52 -43.45L-20.5 -43.45L-20.5 -52.72L-46.09 -52.72Z M16.9 0L27.62 0L16.74 -52.72L1.34 -52.72L-9.54 0L0.96 0L3.03 -10.8L14.83 -10.8ZM9.16 -42.76L13.22 -19.92L4.56 -19.92L8.7 -42.76Z M75.6 0L85.79 0L85.79 -52.72L70.08 -52.72L63.26 -16.25L62.72 -16.25L55.82 -52.72L39.89 -52.72L39.89 0L49.77 0L49.77 -38.85L50.38 -38.85L57.82 0L67.55 0L75.14 -38.85L75.6 -38.85Z"></path>
    </g>
    <g id="SvgjsG282461" class="DjZgbi4fg7" transform="translate(186.2866146956378, 0) scale(1)" light-content="false" fill="#e53637">
      <path d="M0 0 h 275.71338530436225 v 76.32310499253607 h -275.71338530436225 Z"></path>
    </g>
    <g id="SvgjsG282462" class="text" transform="translate(321.11105819953656, 64.21444352297229) scale(1)" light-content="true" fill="#ffffff">
      <path d="M-104.25 0L-93.76 0L-93.76 -52.72L-104.25 -52.72L-104.25 -31.42L-115.06 -31.42L-115.06 -52.72L-125.56 -52.72L-125.56 0L-115.06 0L-115.06 -21.69L-104.25 -21.69Z M-47.01 -52.72L-57.59 -52.72L-57.59 -19.85C-57.59 -16.07 -57.68 -13.49 -57.86 -12.11C-58.03 -10.73 -58.46 -9.81 -59.12 -9.35C-59.78 -8.89 -60.98 -8.66 -62.72 -8.66C-64.46 -8.66 -65.67 -8.89 -66.36 -9.35C-67.05 -9.81 -67.49 -10.74 -67.66 -12.15C-67.84 -13.55 -67.93 -16.12 -67.93 -19.85L-67.93 -52.72L-78.43 -52.72L-78.43 -23.37C-78.43 -16.42 -78.14 -11.38 -77.55 -8.24C-76.96 -5.1 -75.58 -2.84 -73.41 -1.46C-71.24 -0.08 -67.68 0.61 -62.72 0.61C-57.77 0.61 -54.2 -0.08 -52.03 -1.46C-49.86 -2.84 -48.48 -5.1 -47.89 -8.24C-47.31 -11.38 -47.01 -16.42 -47.01 -23.37Z M-9.08 0L0.42 0L0.42 -52.72L-9.69 -52.72L-9.69 -26.05L-10.08 -26.05L-21.49 -52.72L-31.69 -52.72L-31.69 0L-21.65 0L-21.65 -28.89L-21.34 -28.89Z M22.8 0L33.37 0L33.37 -43.14L43.33 -43.14L43.33 -52.72L12.84 -52.72L12.84 -43.14L22.8 -43.14Z M55.75 0L81.34 0L81.34 -9.27L66.32 -9.27L66.32 -21.99L79.27 -21.99L79.27 -31.26L66.32 -31.26L66.32 -43.45L81.34 -43.45L81.34 -52.72L55.75 -52.72Z M117.05 0L128.01 0L121.65 -20.46C123.74 -21.74 125.14 -23.63 125.83 -26.13C126.52 -28.63 126.86 -31.8 126.86 -35.63C126.86 -39.67 126.53 -42.89 125.86 -45.29C125.2 -47.69 123.91 -49.53 121.99 -50.81C120.08 -52.08 117.23 -52.72 113.45 -52.72L95.67 -52.72L95.67 0L106.25 0L106.25 -18.39L111.92 -18.39ZM114.52 -28.08C113.81 -27.7 112.61 -27.51 110.92 -27.51L106.25 -27.51L106.25 -43.45L110.92 -43.45C112.61 -43.45 113.81 -43.26 114.52 -42.87C115.24 -42.49 115.71 -41.79 115.94 -40.77C116.17 -39.75 116.29 -38.01 116.29 -35.56C116.29 -33.05 116.17 -31.28 115.94 -30.23C115.71 -29.18 115.24 -28.47 114.52 -28.08Z"></path>
    </g>
  </g>
</svg>